<svg width="298" height="242" viewBox="0 0 298 242" fill="none" xmlns="http://www.w3.org/2000/svg">
    <path d="M112.582 27.2415L130.793 77.6662" stroke="#ACF3FD" stroke-width="0.6"/>
    <path d="M65.6345 37.4911L94.6448 66.8674" stroke="#ACF3FD" stroke-width="0.6"/>
    <path d="M36.8074 63.8474L80.277 93.5898" stroke="#ACF3FD" stroke-width="0.6"/>
    <path d="M81.1921 65.3114L67.0073 58.9054L77.6231 73.5478" stroke="#ACF3FD" stroke-width="0.6"/>
    <path d="M63.5298 86.9091L108.006 114.364" stroke="#ACF3FD" stroke-width="0.6"/>
    <path d="M107.915 114.73L51.1753 104.938L100.319 133.582" stroke="#ACF3FD" stroke-width="0.6"/>
    <path d="M63.5296 88.8309C64.7193 88.8309 65.6344 87.9158 65.6344 86.7261C65.6344 85.5364 64.7193 84.6212 63.5296 84.6212C62.3399 84.6212 61.4247 85.5364 61.4247 86.7261C61.3332 87.9158 62.3399 88.8309 63.5296 88.8309Z" fill="#D5F9FD"/>
    <path d="M76.891 141.544C78.0807 141.544 78.9958 140.629 78.9958 139.439C78.9958 138.249 78.0807 137.334 76.891 137.334C75.7013 137.334 74.7861 138.249 74.7861 139.439C74.8776 140.445 75.7013 141.544 76.891 141.544Z" fill="#50E6FF"/>
    <path d="M100.502 136.419C101.691 136.419 102.606 135.504 102.606 134.314C102.606 133.124 101.691 132.209 100.502 132.209C99.3119 132.209 98.3967 133.124 98.3967 134.314C98.4882 135.412 99.3119 136.419 100.502 136.419Z" fill="#50E6FF"/>
    <path d="M36.35 65.3116C37.5397 65.3116 38.4548 64.3965 38.4548 63.2068C38.4548 62.0171 37.5397 61.1019 36.35 61.1019C35.1603 61.1019 34.2451 62.0171 34.2451 63.2068C34.2451 64.3965 35.1603 65.3116 36.35 65.3116Z" fill="#32B0E7"/>
    <path d="M160.993 18.2728C162.183 18.2728 163.098 17.3576 163.098 16.168C163.098 14.9783 162.183 14.0631 160.993 14.0631C159.803 14.0631 158.888 14.9783 158.888 16.168C158.705 17.3576 159.803 18.2728 160.993 18.2728Z" fill="#50E6FF"/>
    <path d="M51.0836 106.859C52.2733 106.859 53.1884 105.944 53.1884 104.755C53.1884 103.565 52.2733 102.65 51.0836 102.65C49.8939 102.65 48.9788 103.565 48.9788 104.755C48.9788 105.853 49.8939 106.859 51.0836 106.859Z" fill="#50E6FF"/>
    <path d="M91.4422 37.3996C92.6319 37.3996 93.5471 36.4845 93.5471 35.2948C93.5471 34.1051 92.6319 33.1899 91.4422 33.1899C90.2526 33.1899 89.3374 34.1051 89.3374 35.2948C89.3374 36.4845 90.2526 37.3996 91.4422 37.3996Z" fill="#50E6FF"/>
    <path d="M66.8243 60.9189C68.014 60.9189 68.9292 60.0038 68.9292 58.8141C68.9292 57.6244 68.014 56.7092 66.8243 56.7092C65.6346 56.7092 64.7195 57.6244 64.7195 58.8141C64.7195 59.8207 65.8177 60.9189 66.8243 60.9189Z" fill="#50E6FF"/>
    <path d="M108.281 116.56C109.47 116.56 110.386 115.645 110.386 114.455C110.386 113.265 109.47 112.35 108.281 112.35C107.091 112.35 106.176 113.265 106.176 114.455C106.084 115.462 107.091 116.56 108.281 116.56Z" fill="#50E6FF"/>
    <path d="M112.856 29.5291C114.046 29.5291 114.961 28.614 114.961 27.4243C114.961 26.2346 114.046 25.3195 112.856 25.3195C111.667 25.3195 110.752 26.2346 110.752 27.4243C110.66 28.5225 111.667 29.5291 112.856 29.5291Z" fill="#50E6FF"/>
    <path d="M136.285 29.5291C137.474 29.5291 138.389 28.614 138.389 27.4243C138.389 26.2346 137.474 25.3195 136.285 25.3195C135.095 25.3195 134.18 26.2346 134.18 27.4243C134.271 28.5225 135.095 29.5291 136.285 29.5291Z" fill="#32B0E7"/>
    <path d="M136.193 5.00314C137.382 5.00314 138.298 4.08799 138.298 2.8983C138.298 1.70861 137.382 0.793457 136.193 0.793457C135.003 0.793457 134.088 1.70861 134.088 2.8983C133.905 3.99648 135.003 5.00314 136.193 5.00314Z" fill="#32B0E7"/>
    <path d="M65.6346 39.0468C66.8243 39.0468 67.7395 38.1317 67.7395 36.942C67.7395 35.7523 66.8243 34.8372 65.6346 34.8372C64.4449 34.8372 63.5298 35.7523 63.5298 36.942C63.5298 38.1317 64.4449 39.0468 65.6346 39.0468Z" fill="#32B0E7"/>
    <path opacity="0.5" d="M153.49 133.124L132.99 120.495L153.307 108.964L174.263 120.953L153.49 133.124Z" stroke="#50E6FF" stroke-width="0.8474" stroke-miterlimit="10" stroke-linecap="round" stroke-linejoin="round"/>
    <path opacity="0.5" d="M153.489 157.467L132.624 145.479L153.581 133.307L174.538 145.479L153.489 157.467Z" stroke="#50E6FF" stroke-width="0.8474" stroke-miterlimit="10"/>
    <path opacity="0.5" d="M132.99 120.495L132.624 145.296L153.581 157.284V133.124L132.99 120.495Z" stroke="#50E6FF" stroke-width="0.75" stroke-miterlimit="10" stroke-linecap="round" stroke-linejoin="round"/>
    <path opacity="0.5" d="M153.307 108.964L153.49 133.124L174.447 145.296V121.136L153.307 108.964Z" stroke="#50E6FF" stroke-width="0.8474" stroke-miterlimit="10"/>
    <path d="M153.49 111.984C155.045 111.984 156.144 110.886 156.144 109.33C156.144 107.774 155.045 106.676 153.49 106.676C151.934 106.676 150.836 107.774 150.836 109.33C150.836 110.611 152.208 111.984 153.49 111.984Z" fill="#32B0E7"/>
    <path d="M133.173 123.332C134.729 123.332 135.827 122.234 135.827 120.678C135.827 119.122 134.729 118.024 133.173 118.024C131.617 118.024 130.519 119.122 130.519 120.678C130.519 121.959 131.8 123.332 133.173 123.332Z" fill="#32B0E7"/>
    <path d="M174.629 123.973C176.185 123.973 177.283 122.875 177.283 121.319C177.283 119.763 176.185 118.665 174.629 118.665C173.074 118.665 171.975 119.763 171.975 121.319C171.975 122.783 173.165 123.973 174.629 123.973Z" fill="#50E6FF"/>
    <path d="M153.49 135.961C155.045 135.961 156.144 134.863 156.144 133.307C156.144 131.751 155.045 130.653 153.49 130.653C151.934 130.653 150.836 131.751 150.836 133.307C150.836 134.771 152.208 135.961 153.49 135.961Z" fill="#50E6FF"/>
    <path d="M132.624 148.133C134.18 148.133 135.278 147.034 135.278 145.479C135.278 143.923 134.18 142.825 132.624 142.825C131.068 142.825 129.97 143.923 129.97 145.479C129.879 146.76 131.068 148.133 132.624 148.133Z" fill="#32B0E7"/>
    <path d="M153.673 160.121C155.228 160.121 156.327 159.023 156.327 157.467C156.327 155.912 155.228 154.813 153.673 154.813C152.117 154.813 151.019 155.912 151.019 157.467C151.019 159.023 152.392 160.121 153.673 160.121Z" fill="#32B0E7"/>
    <path d="M174.629 148.133C176.185 148.133 177.283 147.034 177.283 145.479C177.283 143.923 176.185 142.825 174.629 142.825C173.074 142.825 171.975 143.923 171.975 145.479C171.975 146.76 173.165 148.133 174.629 148.133Z" fill="#32B0E7"/>
    <path d="M116.517 148.956L77.5317 165.612C88.605 191.694 109.562 208.715 137.291 214.115L145.436 172.201C132.349 169.73 121.642 160.853 116.517 148.956Z" fill="url(#paint0_linear)"/>
    <path d="M152.94 94.2304C174.538 94.3219 192.017 111.893 192.017 133.582C192.017 155.271 174.446 172.933 152.666 172.933C150.195 172.933 147.724 172.659 145.345 172.293L137.2 214.207C142.325 215.213 147.541 215.762 152.849 215.671C198.057 215.671 234.755 178.973 234.755 133.582C234.755 89.6547 200.254 53.7808 156.967 51.5845L152.94 94.2304Z" fill="url(#paint1_linear)"/>
    <path d="M118.805 153.44C115.327 147.583 113.406 140.811 113.406 133.49C113.406 125.528 115.785 118.116 119.812 111.984L76.6166 84.8042C61.2421 108.781 56.9409 143.831 72.3154 174.58L118.805 153.44Z" fill="url(#paint2_linear)"/>
    <path d="M119.811 111.984C126.858 101.277 138.938 94.1389 152.757 94.1389C152.848 94.1389 152.94 94.1389 153.031 94.1389L158.614 34.8372C119.72 33.0069 89.6115 50.7608 69.8442 79.588C77.806 86.3601 106.267 103.839 119.811 111.984Z" fill="url(#paint3_linear)"/>
    <path d="M246.925 166.802C246.925 153.532 236.035 142.733 222.857 142.733C210.96 142.733 200.985 151.519 199.063 162.867H208.947C209.587 160.579 210.868 158.382 212.607 156.644C215.353 153.898 219.013 152.434 222.765 152.434C226.518 152.434 230.27 153.898 232.924 156.644C235.669 159.389 237.133 163.05 237.133 166.802C237.133 167.534 237.133 169.73 237.133 172.659H198.605V221.07H246.834V175.862C246.925 171.469 246.925 167.9 246.925 166.802Z" fill="url(#paint4_linear)"/>
    <path opacity="0.5" d="M221.667 117.109L205.195 107.591L221.484 98.0737L273.465 102.833L221.667 117.109Z" stroke="#50E6FF" stroke-width="0.75" stroke-miterlimit="10" stroke-linejoin="round"/>
    <path opacity="0.5" d="M221.668 136.052L205.378 126.535L221.668 117.2" stroke="#50E6FF" stroke-width="0.8474" stroke-miterlimit="10"/>
    <path opacity="0.5" d="M205.195 107.591L205.378 126.443L221.667 135.961V117.109L205.195 107.591Z" stroke="#50E6FF" stroke-width="0.8474" stroke-miterlimit="10" stroke-linejoin="round"/>
    <path opacity="0.5" d="M243.631 142.184L273.465 102.833L221.484 98.0737L221.667 117.109" stroke="#50E6FF" stroke-width="0.75" stroke-miterlimit="10" stroke-linejoin="round"/>
    <path d="M221.668 100.27C222.857 100.27 223.772 99.3551 223.772 98.1654C223.772 96.9757 222.857 96.0605 221.668 96.0605C220.478 96.0605 219.563 96.9757 219.563 98.1654C219.563 99.4466 220.478 100.27 221.668 100.27Z" fill="#32B0E7"/>
    <path d="M273.465 105.029C274.654 105.029 275.57 104.114 275.57 102.924C275.57 101.734 274.654 100.819 273.465 100.819C272.275 100.819 271.36 101.734 271.36 102.924C271.36 104.114 272.275 105.029 273.465 105.029Z" fill="#50E6FF"/>
    <path d="M221.668 119.305C222.857 119.305 223.772 118.39 223.772 117.201C223.772 116.011 222.857 115.096 221.668 115.096C220.478 115.096 219.563 116.011 219.563 117.201C219.563 118.39 220.478 119.305 221.668 119.305Z" fill="#32B0E7"/>
    <path d="M205.469 128.64C206.659 128.64 207.574 127.725 207.574 126.535C207.574 125.345 206.659 124.43 205.469 124.43C204.279 124.43 203.364 125.345 203.364 126.535C203.364 127.725 204.279 128.64 205.469 128.64Z" fill="#32B0E7"/>
    <path d="M221.85 138.157C223.04 138.157 223.955 137.242 223.955 136.053C223.955 134.863 223.04 133.948 221.85 133.948C220.66 133.948 219.745 134.863 219.745 136.053C219.745 137.242 220.66 138.157 221.85 138.157Z" fill="#32B0E7"/>
    <path d="M243.814 144.289C245.004 144.289 245.919 143.374 245.919 142.184C245.919 140.994 245.004 140.079 243.814 140.079C242.624 140.079 241.709 140.994 241.709 142.184C241.526 143.191 242.624 144.289 243.814 144.289Z" fill="#32B0E7"/>
    <path d="M205.286 110.062C206.476 110.062 207.391 109.147 207.391 107.957C207.391 106.768 206.476 105.853 205.286 105.853C204.096 105.853 203.181 106.768 203.181 107.957C203.273 109.056 204.279 110.062 205.286 110.062Z" fill="#32B0E7"/>
    <path d="M273.922 94.2302C275.112 94.2302 276.027 93.315 276.027 92.1253C276.027 90.9357 275.112 90.0205 273.922 90.0205C272.733 90.0205 271.817 90.9357 271.817 92.1253C271.817 93.132 272.733 94.2302 273.922 94.2302Z" fill="#50E6FF"/>
    <path d="M222.857 196.178C226.335 196.178 229.08 193.433 229.08 189.955C229.08 186.477 226.335 183.732 222.857 183.732C219.38 183.732 216.634 186.477 216.634 189.955C216.634 193.341 219.38 196.178 222.857 196.178Z" fill="#0078D4"/>
    <path d="M233.29 208.532C233.29 202.767 228.623 198.1 222.858 198.1C217.092 198.1 212.425 202.767 212.425 208.532H233.29Z" fill="#0078D4"/>
    <path d="M149.096 33.8306V52.8657" stroke="#ACF3FD" stroke-width="0.6"/>
    <path d="M149.096 52.8657L132.807 43.3482L149.096 34.0137L165.386 44.4464L149.096 52.8657Z" stroke="#ACF3FD" stroke-width="0.6"/>
    <path d="M149.189 71.9005L86.6838 50.2114L149.006 52.7738L179.022 83.5229L149.189 71.9005Z" stroke="#ACF3FD" stroke-width="0.6"/>
    <path d="M132.716 43.165L86.6838 50.1202L149.189 71.6262L149.006 52.5911L132.716 43.165Z" stroke="#ACF3FD" stroke-width="0.6"/>
    <path opacity="0.5" d="M149.096 52.8657L179.113 83.4317L165.294 44.3548L149.096 33.8306" stroke="#50E6FF" stroke-width="0.8474" stroke-miterlimit="10" stroke-linejoin="round"/>
    <path d="M132.898 45.5442C134.088 45.5442 135.003 44.629 135.003 43.4393C135.003 42.2496 134.088 41.3345 132.898 41.3345C131.708 41.3345 130.793 42.2496 130.793 43.4393C130.793 44.7205 131.708 45.5442 132.898 45.5442Z" fill="#D5F9FD"/>
    <path d="M149.188 36.1184C150.378 36.1184 151.293 35.2032 151.293 34.0135C151.293 32.8238 150.378 31.9087 149.188 31.9087C147.999 31.9087 147.083 32.8238 147.083 34.0135C147.175 35.2032 147.999 36.1184 149.188 36.1184Z" fill="#D5F9FD"/>
    <path d="M165.57 46.6423C166.759 46.6423 167.674 45.7272 167.674 44.5375C167.674 43.3478 166.759 42.4326 165.57 42.4326C164.38 42.4326 163.465 43.3478 163.465 44.5375C163.373 45.6356 164.38 46.6423 165.57 46.6423Z" fill="#50E6FF"/>
    <path d="M149.188 55.0617C150.378 55.0617 151.293 54.1466 151.293 52.9569C151.293 51.7672 150.378 50.8521 149.188 50.8521C147.999 50.8521 147.083 51.7672 147.083 52.9569C147.175 54.2381 147.999 55.0617 149.188 55.0617Z" fill="#D5F9FD"/>
    <path d="M86.5919 52.0417C87.7816 52.0417 88.6967 51.1266 88.6967 49.9369C88.6967 48.7472 87.7816 47.832 86.5919 47.832C85.4022 47.832 84.4871 48.7472 84.4871 49.9369C84.4871 51.0351 85.4022 52.0417 86.5919 52.0417Z" fill="#50E6FF"/>
    <path d="M149.371 73.9138C150.56 73.9138 151.476 72.9986 151.476 71.8089C151.476 70.6193 150.56 69.7041 149.371 69.7041C148.181 69.7041 147.266 70.6193 147.266 71.8089C147.266 73.0902 148.181 73.9138 149.371 73.9138Z" fill="#D5F9FD"/>
    <path d="M179.022 85.7195C180.212 85.7195 181.127 84.8043 181.127 83.6146C181.127 82.4249 180.212 81.5098 179.022 81.5098C177.833 81.5098 176.918 82.4249 176.918 83.6146C176.826 84.6213 177.833 85.7195 179.022 85.7195Z" fill="#50E6FF"/>
    <path opacity="0.5" d="M115.877 187.758L99.2209 178.241L115.511 168.906L136.742 197.825L115.877 187.758Z" stroke="#50E6FF" stroke-width="0.7" stroke-miterlimit="10" stroke-linejoin="round"/>
    <path opacity="0.5" d="M75.6094 180.346L99.4033 178.241L115.876 187.759L115.693 168.724L75.6094 180.346Z" stroke="#50E6FF" stroke-width="0.8474" stroke-miterlimit="10"/>
    <path d="M75.7928 182.45C76.9825 182.45 77.8977 181.535 77.8977 180.346C77.8977 179.156 76.9825 178.241 75.7928 178.241C74.6031 178.241 73.688 179.156 73.688 180.346C73.688 181.535 74.6031 182.45 75.7928 182.45Z" fill="#50E6FF"/>
    <path d="M115.876 171.103C117.066 171.103 117.981 170.188 117.981 168.998C117.981 167.808 117.066 166.893 115.876 166.893C114.687 166.893 113.771 167.808 113.771 168.998C113.771 170.279 114.687 171.103 115.876 171.103Z" fill="#50E6FF"/>
    <path d="M99.4034 180.529C100.593 180.529 101.508 179.614 101.508 178.424C101.508 177.234 100.593 176.319 99.4034 176.319C98.2137 176.319 97.2986 177.234 97.2986 178.424C97.2986 179.614 98.2137 180.529 99.4034 180.529Z" fill="#50E6FF"/>
    <path d="M115.877 189.864C117.066 189.864 117.982 188.948 117.982 187.759C117.982 186.569 117.066 185.654 115.877 185.654C114.687 185.654 113.772 186.569 113.772 187.759C113.68 188.948 114.687 189.864 115.877 189.864Z" fill="#50E6FF"/>
    <path d="M137.108 199.93C138.297 199.93 139.213 199.015 139.213 197.825C139.213 196.635 138.297 195.72 137.108 195.72C135.918 195.72 135.003 196.635 135.003 197.825C135.003 199.015 135.918 199.93 137.108 199.93Z" fill="#32B0E7"/>
    <defs>
        <linearGradient id="paint0_linear" x1="139.031" y1="185.248" x2="-2.68339" y2="144.046" gradientUnits="userSpaceOnUse">
            <stop stop-color="#0078D4"/>
            <stop offset="1" stop-color="#243A5E"/>
        </linearGradient>
        <linearGradient id="paint1_linear" x1="157.734" y1="133.877" x2="93.6187" y2="97.972" gradientUnits="userSpaceOnUse">
            <stop stop-color="#0078D4"/>
            <stop offset="1" stop-color="#243A5E"/>
        </linearGradient>
        <linearGradient id="paint2_linear" x1="97.6223" y1="-88.1115" x2="88.2186" y2="228.192" gradientUnits="userSpaceOnUse">
            <stop stop-color="#50E6FF"/>
            <stop offset="1" stop-color="#0078D4"/>
        </linearGradient>
        <linearGradient id="paint3_linear" x1="-39.7225" y1="142.997" x2="162.688" y2="58.0194" gradientUnits="userSpaceOnUse">
            <stop stop-color="#0078D4"/>
            <stop offset="1" stop-color="#50E6FF"/>
        </linearGradient>
        <linearGradient id="paint4_linear" x1="214.46" y1="98.7633" x2="226.18" y2="231.233" gradientUnits="userSpaceOnUse">
            <stop offset="0.6771" stop-color="#50E6FF"/>
            <stop offset="1" stop-color="#0078D4"/>
        </linearGradient>
    </defs>
</svg>
